<?xml version="1.0" standalone="no"?>
<!DOCTYPE svg PUBLIC "-//W3C//DTD SVG 20010904//EN"
 "http://www.w3.org/TR/2001/REC-SVG-20010904/DTD/svg10.dtd">
<svg version="1.0" xmlns="http://www.w3.org/2000/svg"
 width="694.000000pt" height="479.000000pt" viewBox="0 0 694.000000 479.000000"
 preserveAspectRatio="xMidYMid meet">

<g transform="translate(0.000000,479.000000) scale(0.100000,-0.100000)"
fill="#000000" stroke="none">
<path d="M0 4336 l0 -454 31 -11 c18 -6 41 -11 51 -11 11 0 29 -6 41 -12 12
-7 47 -13 77 -14 65 -1 175 -41 202 -74 10 -12 18 -34 18 -49 0 -18 10 -37 30
-54 34 -31 48 -20 27 22 -21 43 -6 61 33 39 23 -13 37 -15 55 -8 14 5 32 7 40
4 16 -7 17 -12 20 -119 1 -38 2 -76 3 -82 3 -20 22 -15 22 5 0 10 5 23 10 28
6 6 13 41 17 78 4 44 11 70 20 73 14 6 64 -12 134 -46 25 -12 42 -15 53 -9 12
7 34 1 74 -18 65 -30 101 -67 102 -105 0 -14 8 -33 18 -42 17 -16 18 -14 14
20 -4 34 -3 36 19 29 13 -4 36 -7 52 -7 15 1 51 -9 80 -23 29 -13 97 -36 152
-50 55 -15 108 -29 117 -32 10 -3 25 -13 35 -22 12 -13 17 -14 21 -4 8 24 51
33 82 17 22 -12 28 -21 28 -45 -1 -28 29 -76 40 -65 3 3 14 -10 26 -28 21 -32
33 -119 41 -289 4 -82 16 -118 41 -118 34 0 43 76 19 166 -10 40 -12 62 -4 76
12 22 4 52 -23 90 -15 21 -18 42 -16 93 3 82 7 89 51 82 68 -11 84 -29 92
-110 4 -40 11 -77 16 -83 5 -7 11 -135 12 -291 2 -312 6 -293 -71 -332 -51
-26 -72 -27 -72 -3 0 10 -13 28 -30 40 -23 17 -30 19 -30 8 0 -8 4 -17 9 -20
18 -11 24 -85 8 -100 -8 -8 -17 -12 -21 -9 -8 8 -8 -11 0 -31 5 -12 18 -5 64
33 70 58 125 86 208 102 96 20 187 -9 261 -83 34 -35 42 -39 56 -28 12 10 14
22 9 44 -10 45 -15 116 -18 249 -2 74 -7 122 -14 129 -7 7 -12 15 -12 19 0 11
40 23 70 22 14 -1 18 0 10 3 -9 3 -26 26 -38 52 -18 38 -21 54 -13 73 5 14 5
32 1 39 -5 8 -4 22 1 32 5 10 11 50 12 90 2 62 5 73 21 76 27 6 34 -12 35 -99
1 -52 8 -97 21 -131 10 -28 16 -56 13 -61 -3 -6 -1 -7 5 -3 6 3 13 -2 16 -11
10 -32 27 -147 32 -218 8 -110 16 -105 50 31 24 99 29 153 15 189 -13 32 -2
53 23 48 16 -3 25 1 30 13 4 10 2 20 -3 22 -27 9 -51 40 -54 70 -2 17 -7 35
-10 39 -11 11 -8 105 3 98 6 -3 10 -1 10 5 0 6 15 8 43 4 91 -12 83 3 82 -146
0 -73 -3 -136 -8 -139 -4 -3 0 -20 9 -37 8 -17 12 -37 8 -44 -5 -7 -7 -67 -6
-132 l3 -120 40 -54 c23 -30 44 -50 49 -45 18 19 33 107 40 223 7 126 15 164
31 154 9 -5 14 23 10 60 -1 16 1 17 14 6 10 -9 15 -9 15 -1 0 26 21 8 40 -34
12 -25 52 -78 89 -118 l68 -72 -8 -105 c-17 -196 -26 -375 -22 -387 3 -7 13
-13 23 -13 23 0 32 -24 24 -67 -3 -18 -1 -46 6 -62 9 -24 9 -36 -3 -63 -8 -18
-17 -40 -20 -49 -6 -17 -29 -22 -157 -35 l-65 -6 -71 66 c-52 48 -71 72 -71
91 0 14 2 25 6 25 16 0 31 89 31 184 l0 104 -26 5 c-22 4 -28 0 -39 -28 -18
-41 -13 -167 9 -218 12 -30 13 -41 3 -51 -10 -11 -16 -10 -32 8 -11 11 -36 32
-55 47 -59 42 -99 13 -42 -31 15 -12 74 -65 131 -118 57 -53 113 -103 125
-110 15 -9 51 -11 134 -6 70 4 112 3 112 -3 0 -6 -5 -24 -11 -42 -9 -26 -8
-35 5 -50 21 -24 21 -25 -19 -89 -53 -87 -114 -236 -144 -352 l-26 -105 -52
-5 c-28 -3 -55 -8 -58 -12 -14 -14 7 -27 34 -22 16 3 37 1 48 -5 19 -9 20 -18
16 -103 -5 -109 6 -199 26 -206 11 -4 12 10 7 80 -9 103 7 255 39 380 24 97
76 233 95 252 11 11 14 9 47 -41 11 -16 12 -13 8 17 -6 42 0 52 44 70 18 7 46
24 62 37 l28 24 10 -38 c5 -21 13 -51 17 -68 14 -65 79 -255 120 -354 24 -57
44 -110 44 -118 0 -8 -9 -17 -21 -20 -15 -4 -19 -11 -15 -27 3 -12 -1 -44 -9
-70 -17 -56 -19 -96 -6 -96 5 0 13 10 17 23 4 12 15 31 26 42 10 11 33 37 50
58 17 21 50 50 72 66 43 28 200 100 321 147 113 44 233 102 297 145 76 50 198
158 198 174 0 7 -12 16 -27 19 -16 4 -37 10 -48 13 -14 4 -11 -1 10 -20 l30
-25 -46 -43 c-71 -69 -144 -117 -279 -181 -69 -33 -134 -64 -145 -68 -11 -5
-42 -18 -69 -29 -27 -12 -54 -21 -60 -21 -31 0 -220 -107 -261 -148 -25 -24
-45 -40 -45 -34 0 18 67 130 114 190 59 76 136 154 354 361 187 177 265 270
376 446 99 156 201 380 189 412 -10 25 -18 12 -42 -63 -13 -41 -45 -110 -70
-152 -25 -42 -65 -116 -89 -164 -47 -97 -116 -173 -192 -214 -38 -21 -29 -24
18 -7 46 18 -40 -86 -190 -228 -149 -142 -228 -209 -244 -209 -14 0 -47 80
-69 165 -28 110 4 175 53 108 12 -16 24 -24 29 -19 4 5 2 11 -4 13 -7 3 -33
46 -57 97 -48 100 -57 106 -137 106 -33 0 -41 -12 -63 -95 -8 -33 -22 -65 -30
-71 -22 -16 1 -37 26 -23 23 13 34 6 42 -27 5 -18 -6 -56 -35 -130 -23 -57
-43 -104 -46 -104 -15 0 -83 229 -83 281 0 19 5 29 15 29 12 0 9 9 -11 40 -21
31 -27 53 -28 102 -1 34 -7 63 -13 65 -18 6 -20 -18 -10 -115 5 -51 6 -96 2
-100 -4 -4 -10 -1 -12 6 -3 7 -27 24 -54 37 -50 26 -53 31 -49 75 2 28 53 132
81 169 25 32 25 61 -1 61 -21 0 -28 16 -9 22 20 7 -16 198 -52 284 -9 23 -14
45 -11 51 29 42 315 191 410 213 85 20 127 9 301 -75 151 -72 209 -90 151 -44
-38 29 -248 134 -308 154 -72 23 -141 10 -291 -56 -64 -28 -127 -53 -141 -56
-14 -3 -38 -17 -53 -29 -16 -13 -32 -24 -37 -24 -5 0 -16 -3 -25 -7 -16 -6
-16 -4 -2 18 9 13 17 43 18 65 3 48 15 68 47 78 34 11 27 22 -23 36 -24 7 -63
28 -85 47 -39 34 -41 37 -35 78 10 65 -25 121 -90 142 -27 8 -32 17 -46 76
-13 51 -14 77 -7 107 15 59 31 68 140 76 114 8 148 -2 177 -52 27 -45 44 -44
35 1 -11 58 4 103 49 152 47 52 93 75 128 66 42 -11 89 -44 104 -73 10 -19 29
-32 57 -41 65 -21 58 -36 -19 -42 -74 -5 -120 -22 -173 -64 l-34 -28 21 31
c12 17 29 37 38 44 8 7 15 16 15 21 0 21 -21 6 -59 -42 -30 -38 -38 -55 -31
-64 7 -9 4 -27 -10 -61 l-21 -49 -19 25 c-25 33 -39 17 -18 -20 9 -16 14 -38
11 -50 -3 -12 1 -28 11 -38 9 -10 22 -36 30 -58 11 -28 15 -33 15 -16 1 22 24
31 36 13 13 -22 104 -63 150 -68 62 -6 108 21 145 87 25 46 27 72 21 242 -3
67 -32 135 -64 147 -12 5 -44 27 -71 50 -28 22 -72 48 -98 58 -50 18 -56 29
-35 64 10 17 9 22 -5 33 -10 7 -18 18 -18 25 0 21 -37 11 -61 -18 -13 -16 -48
-55 -78 -86 -49 -52 -57 -56 -75 -45 -15 10 -21 10 -24 1 -3 -9 -7 -9 -18 0
-20 16 -42 -4 -27 -23 6 -7 14 -23 18 -36 6 -21 4 -22 -32 -17 -21 3 -65 7
-98 9 -33 3 -63 5 -66 5 -16 2 -60 161 -119 425 -62 275 -83 422 -84 571 -1
157 3 180 40 224 32 38 77 41 143 9 58 -28 225 -195 354 -353 53 -66 110 -136
126 -155 165 -202 365 -486 519 -736 78 -128 91 -140 132 -125 18 6 57 8 91 4
51 -5 59 -9 60 -27 7 -121 6 -246 -1 -246 -12 0 -13 -53 -1 -66 5 -5 21 -31
36 -59 16 -27 38 -68 51 -90 12 -22 39 -71 59 -110 47 -88 52 -95 80 -95 25 0
100 -77 131 -136 18 -32 18 -39 1 -156 -10 -68 -26 -152 -37 -188 -11 -36 -29
-99 -41 -140 -25 -86 -44 -120 -68 -120 -15 -1 -15 -1 1 -10 27 -16 42 -3 65
58 27 73 82 268 100 356 5 22 14 41 21 44 35 11 309 -331 446 -556 227 -374
346 -763 346 -1128 0 -100 3 -123 15 -128 25 -9 28 17 22 158 -7 145 -27 288
-57 414 -56 227 -204 559 -349 782 -31 47 -61 95 -68 108 -7 13 -32 46 -57 75
-24 29 -57 72 -72 97 -16 25 -51 66 -78 90 -74 68 -138 157 -143 197 -9 80
-99 202 -164 223 -28 10 -48 24 -58 43 -9 16 -25 44 -37 61 -11 18 -24 49 -27
70 -5 31 -3 37 9 32 24 -9 54 33 52 74 -1 38 35 261 52 322 15 51 54 80 105
77 22 -1 54 3 70 11 44 19 328 32 386 18 39 -9 59 -8 130 10 96 25 141 27 224
10 42 -8 62 -8 75 0 10 6 58 18 107 27 48 9 104 22 125 30 32 12 108 17 228
14 54 -2 133 12 155 27 11 8 36 14 56 14 21 0 93 7 160 16 l123 16 18 -22 c10
-13 20 -21 21 -19 2 2 13 18 25 36 45 65 151 106 248 96 46 -5 55 -9 60 -29 8
-33 16 -30 58 20 23 28 52 51 81 62 l45 17 0 573 0 574 -3470 0 -3470 0 0
-454z m3220 -1020 c-12 -12 -25 38 -14 56 5 8 10 3 16 -17 4 -16 3 -34 -2 -39z
m-1056 -38 c12 -16 18 -19 22 -10 15 34 57 -2 56 -49 0 -18 5 -32 15 -36 10
-4 13 -14 9 -34 -4 -23 -1 -29 24 -38 32 -11 37 -20 18 -39 -9 -9 -9 -15 0
-24 18 -18 14 -38 -12 -63 -22 -20 -25 -21 -29 -7 -3 12 -5 11 -6 -4 0 -12 -8
-38 -17 -59 l-15 -37 25 6 c23 6 26 3 26 -17 0 -14 -9 -36 -20 -50 -17 -21
-18 -26 -5 -31 20 -7 19 -33 -2 -45 -17 -9 -17 -11 -1 -23 18 -14 26 -87 14
-125 -9 -27 -27 -29 -62 -7 -13 9 -27 14 -31 11 -3 -4 -14 -2 -24 4 -14 7 -19
21 -19 48 0 21 -5 52 -11 68 -7 23 -6 51 5 108 11 59 11 84 3 102 -8 18 -8 29
1 44 10 16 10 25 -4 49 -10 15 -28 33 -41 39 -29 13 -25 35 5 37 57 3 53 -3
48 104 -2 55 -1 100 4 100 4 0 15 -10 24 -22z m1486 12 c13 -8 12 -11 -7 -16
-21 -6 -21 -6 -3 -24 43 -43 51 -180 16 -249 -40 -77 -135 -93 -224 -38 -40
25 -55 41 -64 69 -9 30 -14 36 -25 27 -10 -9 -13 -6 -13 12 0 54 92 183 152
212 37 18 144 23 168 7z m774 -19 c3 -4 0 -16 -7 -25 -11 -15 -14 -15 -37 1
l-24 17 24 7 c36 10 38 10 44 0z m-1559 -226 c0 -10 -6 -20 -12 -22 -8 -3 -13
5 -13 22 0 17 5 25 13 23 6 -3 12 -13 12 -23z m309 -1231 c24 -24 19 -42 -16
-64 -31 -18 -78 -27 -78 -15 0 8 31 68 42 83 14 16 33 15 52 -4z"/>
<path d="M3450 3199 c0 -5 5 -7 10 -4 6 3 10 8 10 11 0 2 -4 4 -10 4 -5 0 -10
-5 -10 -11z"/>
<path d="M490 3410 c0 -5 5 -10 10 -10 6 0 10 5 10 10 0 6 -4 10 -10 10 -5 0
-10 -4 -10 -10z"/>
<path d="M3707 3403 c-4 -3 -7 -16 -7 -27 1 -21 1 -21 15 -2 8 11 15 23 15 28
0 10 -14 11 -23 1z"/>
<path d="M3738 3364 c-30 -15 -37 -34 -15 -34 15 0 53 37 46 44 -2 2 -16 -2
-31 -10z"/>
<path d="M3735 3299 c-4 -6 -4 -13 -1 -16 8 -8 36 5 36 17 0 13 -27 13 -35 -1z"/>
<path d="M1466 2874 c-9 -22 -8 -24 9 -24 8 0 15 6 15 14 0 22 -17 28 -24 10z"/>
<path d="M5584 2872 c-12 -10 -26 -28 -33 -40 -6 -12 -47 -42 -90 -67 -92 -53
-99 -60 -142 -145 -19 -35 -48 -77 -66 -93 -37 -32 -88 -117 -117 -192 -15
-41 -19 -78 -20 -200 -1 -142 0 -152 22 -179 13 -17 22 -43 22 -63 0 -25 8
-43 28 -63 40 -39 90 -47 177 -27 131 30 199 35 328 22 77 -8 80 -7 139 73 45
61 68 119 68 172 0 21 7 57 16 81 12 33 16 81 17 194 0 156 -5 195 -28 195
-19 0 -53 79 -65 154 -6 36 -13 71 -15 78 -5 13 -142 78 -163 78 -5 0 -17 9
-27 20 -22 24 -24 24 -51 2z"/>
<path d="M1633 2825 c-25 -40 -23 -75 9 -167 19 -55 20 -60 4 -125 -33 -144
-44 -257 -25 -269 5 -3 9 0 9 6 0 6 13 38 29 70 26 52 30 72 32 157 1 54 0
153 -3 220 -7 156 -15 170 -55 108z"/>
<path d="M1797 2786 c-8 -20 4 -157 15 -179 13 -26 54 -19 50 8 -2 11 -4 49
-6 85 -2 36 -7 73 -11 83 -9 21 -41 23 -48 3z"/>
<path d="M1497 2664 c-8 -8 3 -34 14 -34 5 0 9 9 9 20 0 19 -11 26 -23 14z"/>
<path d="M4110 2577 c0 -7 7 -22 15 -33 30 -39 14 -64 -41 -64 -13 0 -24 -4
-24 -9 0 -12 64 -23 94 -15 43 11 43 42 -1 102 -25 33 -43 41 -43 19z"/>
<path d="M1505 2404 c5 -62 3 -99 -4 -113 -7 -13 -9 -36 -5 -57 10 -57 21 -22
28 96 6 88 4 111 -9 135 -16 29 -16 27 -10 -61z"/>
<path d="M1770 2120 c0 -12 11 -16 66 -24 30 -4 43 -2 47 7 3 9 -4 13 -27 13
-17 -1 -43 3 -58 7 -18 5 -28 4 -28 -3z"/>
<path d="M1641 2074 c0 -11 3 -14 6 -6 3 7 2 16 -1 19 -3 4 -6 -2 -5 -13z"/>
<path d="M1475 2010 c-3 -6 1 -13 10 -16 19 -8 30 0 20 15 -8 14 -22 14 -30 1z"/>
<path d="M1805 1960 c0 -48 3 -60 16 -60 24 0 28 9 17 43 -5 18 -10 41 -11 51
-1 11 -7 21 -12 23 -6 2 -10 -21 -10 -57z"/>
<path d="M6835 2000 c-3 -5 -1 -10 4 -10 6 0 11 5 11 10 0 6 -2 10 -4 10 -3 0
-8 -4 -11 -10z"/>
<path d="M1650 1888 c0 -92 23 -112 45 -39 7 24 -20 101 -37 101 -4 0 -8 -28
-8 -62z"/>
<path d="M6855 1907 c-4 -10 -5 -21 -1 -24 10 -10 18 4 13 24 -4 17 -4 17 -12
0z"/>
<path d="M3866 1835 c-15 -11 -16 -15 -5 -15 8 0 24 7 35 15 14 11 15 14 4 14
-8 0 -24 -6 -34 -14z"/>
<path d="M4153 1799 c-15 -15 -6 -37 19 -50 17 -9 18 -8 6 11 -11 18 -10 23 6
36 20 14 20 14 0 14 -11 0 -25 -5 -31 -11z"/>
<path d="M3718 1763 c7 -3 16 -2 19 1 4 3 -2 6 -13 5 -11 0 -14 -3 -6 -6z"/>
<path d="M4200 1730 c0 -5 5 -10 11 -10 5 0 7 5 4 10 -3 6 -8 10 -11 10 -2 0
-4 -4 -4 -10z"/>
<path d="M2180 1705 c0 -9 16 -31 36 -48 45 -40 58 -52 173 -170 52 -54 98
-97 103 -97 14 0 9 40 -7 46 -8 3 -72 67 -141 143 -122 130 -164 163 -164 126z"/>
<path d="M3120 1584 c0 -6 7 -19 15 -30 8 -10 14 -14 14 -9 0 6 -6 19 -14 29
-8 11 -15 15 -15 10z"/>
<path d="M4455 1540 c-10 -19 -22 -30 -30 -26 -14 5 -35 -41 -35 -79 0 -27
-62 -130 -117 -194 -37 -42 -54 -53 -121 -75 -69 -23 -90 -26 -163 -21 -76 5
-81 5 -54 -8 19 -8 25 -16 17 -20 -20 -13 -101 -35 -106 -29 -12 11 -5 53 9
58 14 6 12 24 -3 24 -23 -1 -36 -25 -42 -75 -5 -47 -3 -58 11 -65 11 -6 23 -4
35 5 26 20 42 18 74 -7 15 -13 41 -30 58 -40 42 -22 88 -89 107 -153 19 -66
20 -172 1 -215 -13 -32 -11 -70 4 -70 18 0 34 64 38 155 3 83 0 110 -16 158
-25 69 -69 127 -128 168 -24 16 -44 34 -44 39 0 8 26 17 215 70 60 17 77 27
117 70 58 62 140 197 173 285 27 72 27 98 0 45z"/>
<path d="M3160 1512 c0 -15 47 -99 61 -108 18 -10 9 13 -26 66 -19 30 -35 49
-35 42z"/>
<path d="M3286 1315 c4 -8 11 -15 16 -15 6 0 5 6 -2 15 -7 8 -14 15 -16 15 -2
0 -1 -7 2 -15z"/>
<path d="M3653 1203 c-52 -49 -97 -118 -89 -138 4 -11 21 -15 65 -15 60 0 61
0 80 38 10 20 28 46 40 56 27 24 28 72 2 86 -34 18 -56 11 -98 -27z"/>
<path d="M4985 1106 c-35 -88 -113 -244 -151 -303 -73 -114 -132 -171 -219
-213 -143 -68 -333 -109 -508 -110 -92 0 -100 2 -123 26 -33 32 -52 27 -25 -8
33 -41 79 -52 195 -44 186 13 341 52 482 122 109 54 113 58 167 132 30 42 71
104 91 137 46 79 118 260 114 288 -2 17 -8 11 -23 -27z"/>
<path d="M2470 1085 c-76 -20 -202 -55 -255 -70 -27 -8 -63 -16 -79 -17 -16
-2 -32 -9 -34 -17 -4 -11 1 -12 19 -7 58 18 137 38 179 46 25 5 68 14 95 20
28 6 59 8 71 6 14 -4 29 3 43 18 29 31 17 37 -39 21z"/>
<path d="M3221 551 c-35 -97 -27 -103 46 -37 l48 45 -27 25 c-15 14 -31 26
-36 26 -5 0 -19 -26 -31 -59z"/>
</g>
</svg>
